<?xml version="1.0" encoding="UTF-8"?>
<svg width="61px" height="77px" viewBox="0 0 61 77" version="1.1" xmlns="http://www.w3.org/2000/svg" xmlns:xlink="http://www.w3.org/1999/xlink">
    <!-- Generator: Sketch 51.3 (57544) - http://www.bohemiancoding.com/sketch -->
    <title>Calculator</title>
    <desc>Created with Sketch.</desc>
    <defs></defs>
    <g id="Page-1" stroke="none" stroke-width="1" fill="none" fill-rule="evenodd">
        <g id="Home" transform="translate(-289.000000, -380.000000)">
            <g id="Calculator" transform="translate(289.000000, 380.000000)">
                <text id="Messages-" font-family="Helvetica" font-size="12" font-weight="normal" fill="#FFFFFF">
                    <tspan x="2" y="76">Calculator</tspan>
                </text>
                <g id="Calculator-icon">
                    <path d="M60.3068182,46.9977273 C60.3068182,54.3177273 54.3177273,60.3068182 46.9977273,60.3068182 L13.3090909,60.3068182 C5.98909091,60.3068182 0,54.3177273 0,46.9977273 L0,13.3090909 C0,5.98909091 5.98909091,0 13.3090909,0 L46.9977273,0 C54.3177273,0 60.3068182,5.98909091 60.3068182,13.3090909 L60.3068182,46.9977273 Z" id="Fill-1" fill="#FFFFFF"></path>
                    <g transform="translate(14.000000, 7.000000)">
                        <path d="M31.8886364,41.1761364 C31.8886364,43.6161364 29.8922727,45.6125 27.4522727,45.6125 L4.85454545,45.6125 C2.41454545,45.6125 0.418181818,43.6161364 0.418181818,41.1761364 L0.418181818,5.17726364 C0.418181818,2.73726364 2.41454545,0.7409 4.85454545,0.7409 L27.4522727,0.7409 C29.8922727,0.7409 31.8886364,2.73726364 31.8886364,5.17726364 L31.8886364,41.1761364 Z" id="Fill-3" fill="#000000"></path>
                        <path d="M28.8733509,12.2704545 C28.8733509,13.4904545 27.8751691,14.4886364 26.6551691,14.4886364 L5.65231455,14.4886364 C4.43120545,14.4886364 3.43413273,13.4904545 3.43413273,12.2704545 L3.43413273,5.96305455 C3.43413273,4.74194545 4.43120545,3.74487273 5.65231455,3.74487273 L26.6551691,3.74487273 C27.8751691,3.74487273 28.8733509,4.74194545 28.8733509,5.96305455 L28.8733509,12.2704545 Z" id="Fill-5" fill="#FFFFFF" opacity="0.4"></path>
                        <path d="M25.6673018,23.6990818 C27.3852836,23.6990818 28.7783018,22.3060636 28.7783018,20.5880818 C28.7783018,18.8712091 27.3852836,17.4781909 25.6673018,17.4781909 C23.94932,17.4781909 22.5563018,18.8712091 22.5563018,20.5880818 C22.5563018,22.3060636 23.94932,23.6990818 25.6673018,23.6990818" id="Fill-7" fill="#FF9500"></path>
                        <path d="M25.6673018,26.9400673 C23.94932,26.9400673 22.5563018,28.3330855 22.5563018,30.0510673 C22.5563018,31.76794 23.94932,33.1609582 25.6673018,33.1609582 C27.3852836,33.1609582 28.7783018,31.76794 28.7783018,30.0510673 C28.7783018,28.3330855 27.3852836,26.9400673 25.6673018,26.9400673" id="Fill-9" fill="#FF9500"></path>
                        <path d="M25.6673018,36.2980218 C23.94932,36.2980218 22.5563018,37.69104 22.5563018,39.4090218 C22.5563018,41.1258945 23.94932,42.5189127 25.6673018,42.5189127 C27.3852836,42.5189127 28.7783018,41.1258945 28.7783018,39.4090218 C28.7783018,37.69104 27.3852836,36.2980218 25.6673018,36.2980218" id="Fill-11" fill="#FF9500"></path>
                        <path d="M16.0667891,23.6990818 C14.3488073,23.6990818 12.9557891,22.3060636 12.9557891,20.5880818 C12.9557891,18.8712091 14.3488073,17.4781909 16.0667891,17.4781909 C17.7847709,17.4781909 19.1777891,18.8712091 19.1777891,20.5880818 C19.1777891,22.3060636 17.7847709,23.6990818 16.0667891,23.6990818 Z M6.63951636,23.6990818 C4.92153455,23.6990818 3.52851636,22.3060636 3.52851636,20.5880818 C3.52851636,18.8712091 4.92153455,17.4781909 6.63951636,17.4781909 C8.35749818,17.4781909 9.75051636,18.8712091 9.75051636,20.5880818 C9.75051636,22.3060636 8.35749818,23.6990818 6.63951636,23.6990818 Z M16.0667891,26.9400673 C17.7847709,26.9400673 19.1777891,28.3330855 19.1777891,30.0510673 C19.1777891,31.76794 17.7847709,33.1609582 16.0667891,33.1609582 C14.3488073,33.1609582 12.9557891,31.76794 12.9557891,30.0510673 C12.9557891,28.3330855 14.3488073,26.9400673 16.0667891,26.9400673 Z M6.63951636,33.1610691 C4.92153455,33.1610691 3.52851636,31.7680509 3.52851636,30.0500691 C3.52851636,28.3331964 4.92153455,26.9401782 6.63951636,26.9401782 C8.35749818,26.9401782 9.75051636,28.3331964 9.75051636,30.0500691 C9.75051636,31.7680509 8.35749818,33.1610691 6.63951636,33.1610691 Z M16.0667891,36.2980218 C17.7847709,36.2980218 19.1777891,37.69104 19.1777891,39.4090218 C19.1777891,41.1258945 17.7847709,42.5189127 16.0667891,42.5189127 L6.63951636,42.5189127 C4.92153455,42.5189127 3.52851636,41.1258945 3.52851636,39.4090218 C3.52851636,37.69104 4.92153455,36.2980218 6.63951636,36.2980218 L16.0667891,36.2980218 Z" id="Combined-Shape" fill="#FFFFFF" opacity="0.8"></path>
                    </g>
                </g>
            </g>
        </g>
    </g>
</svg>