<?xml version="1.0" encoding="UTF-8"?>
<svg width="60px" height="76px" viewBox="0 0 60 76" version="1.1" xmlns="http://www.w3.org/2000/svg" xmlns:xlink="http://www.w3.org/1999/xlink">
    <!-- Generator: Sketch 51.3 (57544) - http://www.bohemiancoding.com/sketch -->
    <title>Health</title>
    <desc>Created with Sketch.</desc>
    <defs>
        <linearGradient x1="50%" y1="0%" x2="50%" y2="100%" id="linearGradient-1">
            <stop stop-color="#FF61AD" offset="0%"></stop>
            <stop stop-color="#FF2719" offset="100%"></stop>
        </linearGradient>
    </defs>
    <g id="Page-1" stroke="none" stroke-width="1" fill="none" fill-rule="evenodd">
        <g id="Home" transform="translate(-115.000000, -380.000000)">
            <g id="Health" transform="translate(115.000000, 380.000000)">
                <text font-family="Helvetica" font-size="12" font-weight="normal" fill="#FFFFFF">
                    <tspan x="11" y="75">Health</tspan>
                </text>
                <g id="Health-icons">
                    <g id="Health-Icon">
                        <path d="M39.0815,0 C45.105,0 48.116,0 51.3585,1.025 C54.8985,2.3135 57.6865,5.1015 58.975,8.6415 C60,11.8835 60,14.8955 60,20.9185 L60,39.0815 C60,45.105 60,48.116 58.975,51.3585 C57.6865,54.8985 54.8985,57.6865 51.3585,58.9745 C48.116,60 45.105,60 39.0815,60 L20.9185,60 C14.895,60 11.8835,60 8.6415,58.9745 C5.1015,57.6865 2.3135,54.8985 1.025,51.3585 C0,48.116 0,45.105 0,39.0815 L0,20.9185 C0,14.8955 0,11.8835 1.025,8.6415 C2.3135,5.1015 5.1015,2.3135 8.6415,1.025 C11.8835,0 14.895,0 20.9185,0 L39.0815,0 Z" id="Background" fill="#FFFFFF"></path>
                        <path d="M50.5,18 C50.5,13.4773994 47.0302068,10 43,10 C40.1847268,10 37.9105551,10.9578793 36.5,13 C35.0894449,10.9578793 32.8152732,10 30.5,10 C25.9697932,10 22.5,13.4773994 22.5,18 C22.5,17.8081146 22.5003189,17.8491656 22.5,18 C22.500319,17.932203 22.5,17.9746677 22.5,18 C22.5,24.7266325 28.9714355,31.567683 36.5,34.5 C42.4370611,32.4956157 50.5,24.7266325 50.5,18 C50.5,17.9753236 50.4996709,17.9335026 50.5,18 C50.499671,17.8504554 50.5,17.8087607 50.5,18 Z" fill="url(#linearGradient-1)"></path>
                    </g>
                </g>
            </g>
        </g>
    </g>
</svg>