<?xml version="1.0" encoding="UTF-8"?>
<svg width="60px" height="60px" viewBox="0 0 60 60" version="1.1" xmlns="http://www.w3.org/2000/svg" xmlns:xlink="http://www.w3.org/1999/xlink">
    <!-- Generator: Sketch 51.3 (57544) - http://www.bohemiancoding.com/sketch -->
    <title>Music</title>
    <desc>Created with Sketch.</desc>
    <defs></defs>
    <g id="Page-1" stroke="none" stroke-width="1" fill="none" fill-rule="evenodd">
        <g id="Home" transform="translate(-289.000000, -591.000000)">
            <g id="Dock" transform="translate(0.000000, 571.000000)">
                <g id="Music" transform="translate(289.000000, 20.000000)">
                    <g id="Music-Icon">
                        <path d="M39.0815,0 C45.105,0 48.116,0 51.3585,1.025 C54.8985,2.3135 57.6865,5.1015 58.975,8.6415 C60,11.8835 60,14.8955 60,20.9185 L60,39.0815 C60,45.105 60,48.116 58.975,51.3585 C57.6865,54.8985 54.8985,57.6865 51.3585,58.9745 C48.116,60 45.105,60 39.0815,60 L20.9185,60 C14.895,60 11.8835,60 8.6415,58.9745 C5.1015,57.6865 2.3135,54.8985 1.025,51.3585 C0,48.116 0,45.105 0,39.0815 L0,20.9185 C0,14.8955 0,11.8835 1.025,8.6415 C2.3135,5.1015 5.1015,2.3135 8.6415,1.025 C11.8835,0 14.895,0 20.9185,0 L39.0815,0 Z" id="Background" fill="#FFFFFF"></path>
                        <path d="M12,44.8264926 C12,47.4075994 14.0586123,49.5 17.254902,49.5 L17.5686275,49.5 C21.4217799,49.5 23.4803922,46.743665 23.4803922,43.4986237 L23.4803922,23.01704 C23.4803922,22.648173 23.769289,22.2897204 24.1241945,22.2167154 L40.7287467,18.6982636 C41.0843089,18.6251235 41.372549,18.8661984 41.372549,19.230613 L41.372549,32.9467845 C41.3365435,34.0933014 41.1347476,34.7355394 40.7516887,35.2434958 C40.3742996,35.7439338 39.7616714,36.0862094 39.0327051,36.1471216 L37.1176471,36.1471216 C34.5782201,36.1471216 32.5196078,38.2395222 32.5196078,40.8206291 C32.5196078,43.4017359 34.5782201,45.4941365 37.7745098,45.4941365 L38.0882353,45.4941365 C41.9413877,45.4941365 44,42.7378015 44,39.4927602 L44,14.4449847 L44,10.6005405 C44,9.86570961 43.4271796,9.3832213 42.7118383,9.52459842 L22.1411029,13.6889319 C21.4296708,13.8295364 20.8529412,14.5375888 20.8529412,15.2853913 L20.8529412,18.4508483 L20.8529412,36.952648 C20.8169356,38.0991649 20.6151397,38.741403 20.2320809,39.2493593 C19.8546918,39.7497973 19.2420636,40.0920729 18.5130973,40.1529851 L16.5980392,40.1529851 C14.0586123,40.1529851 12,42.2453857 12,44.8264926 Z" fill=""></path>
                    </g>
                </g>
            </g>
        </g>
    </g>
</svg>