<?xml version="1.0" encoding="UTF-8"?>
<svg width="60px" height="76px" viewBox="0 0 60 76" version="1.1" xmlns="http://www.w3.org/2000/svg" xmlns:xlink="http://www.w3.org/1999/xlink">
    <!-- Generator: Sketch 51.3 (57544) - http://www.bohemiancoding.com/sketch -->
    <title>Notes</title>
    <desc>Created with Sketch.</desc>
    <defs>
        <linearGradient x1="50%" y1="0%" x2="50%" y2="100%" id="linearGradient-1">
            <stop stop-color="#F8F8F8" offset="0%"></stop>
            <stop stop-color="#EDEDED" offset="100%"></stop>
        </linearGradient>
        <path d="M39.0815,0 C45.105,0 48.116,0 51.3585,1.025 C54.8985,2.3135 57.6865,5.1015 58.975,8.6415 C60,11.8835 60,14.8955 60,20.9185 L60,39.0815 C60,45.105 60,48.116 58.975,51.3585 C57.6865,54.8985 54.8985,57.6865 51.3585,58.9745 C48.116,60 45.105,60 39.0815,60 L20.9185,60 C14.895,60 11.8835,60 8.6415,58.9745 C5.1015,57.6865 2.3135,54.8985 1.025,51.3585 C0,48.116 0,45.105 0,39.0815 L0,20.9185 C0,14.8955 0,11.8835 1.025,8.6415 C2.3135,5.1015 5.1015,2.3135 8.6415,1.025 C11.8835,0 14.895,0 20.9185,0 L39.0815,0 Z" id="path-2"></path>
        <linearGradient x1="50%" y1="0%" x2="50%" y2="100%" id="linearGradient-4">
            <stop stop-color="#FFDB4C" offset="0%"></stop>
            <stop stop-color="#FFCD02" offset="100%"></stop>
        </linearGradient>
        <rect id="path-5" x="-1" y="0" width="62" height="18.5"></rect>
        <filter x="-6.5%" y="-10.8%" width="112.9%" height="148.6%" filterUnits="objectBoundingBox" id="filter-6">
            <feOffset dx="0" dy="2" in="SourceAlpha" result="shadowOffsetOuter1"></feOffset>
            <feGaussianBlur stdDeviation="1" in="shadowOffsetOuter1" result="shadowBlurOuter1"></feGaussianBlur>
            <feColorMatrix values="0 0 0 0 0   0 0 0 0 0   0 0 0 0 0  0 0 0 0.1 0" type="matrix" in="shadowBlurOuter1" result="shadowMatrixOuter1"></feColorMatrix>
            <feOffset dx="0" dy="1" in="SourceAlpha" result="shadowOffsetOuter2"></feOffset>
            <feColorMatrix values="0 0 0 0 0   0 0 0 0 0   0 0 0 0 0  0 0 0 0.3 0" type="matrix" in="shadowOffsetOuter2" result="shadowMatrixOuter2"></feColorMatrix>
            <feMerge>
                <feMergeNode in="shadowMatrixOuter1"></feMergeNode>
                <feMergeNode in="shadowMatrixOuter2"></feMergeNode>
            </feMerge>
        </filter>
        <filter x="-4.0%" y="-2.7%" width="108.1%" height="132.4%" filterUnits="objectBoundingBox" id="filter-7">
            <feOffset dx="0" dy="1" in="SourceAlpha" result="shadowOffsetInner1"></feOffset>
            <feComposite in="shadowOffsetInner1" in2="SourceAlpha" operator="arithmetic" k2="-1" k3="1" result="shadowInnerInner1"></feComposite>
            <feColorMatrix values="0 0 0 0 1   0 0 0 0 0.878431373   0 0 0 0 0.4  0 0 0 1 0" type="matrix" in="shadowInnerInner1" result="shadowMatrixInner1"></feColorMatrix>
            <feOffset dx="0" dy="-1" in="SourceAlpha" result="shadowOffsetInner2"></feOffset>
            <feComposite in="shadowOffsetInner2" in2="SourceAlpha" operator="arithmetic" k2="-1" k3="1" result="shadowInnerInner2"></feComposite>
            <feColorMatrix values="0 0 0 0 0.874509804   0 0 0 0 0.698039216   0 0 0 0 0.00392156863  0 0 0 1 0" type="matrix" in="shadowInnerInner2" result="shadowMatrixInner2"></feColorMatrix>
            <feMerge>
                <feMergeNode in="shadowMatrixInner1"></feMergeNode>
                <feMergeNode in="shadowMatrixInner2"></feMergeNode>
            </feMerge>
        </filter>
        <path d="M1,23 C1.27614239,23 1.5,22.7761424 1.5,22.5 C1.5,22.2238576 1.27614239,22 1,22 C0.723857611,22 0.5,22.2238576 0.5,22.5 C0.5,22.7761424 0.723857611,23 1,23 Z M3,23 C3.27614239,23 3.5,22.7761424 3.5,22.5 C3.5,22.2238576 3.27614239,22 3,22 C2.72385761,22 2.5,22.2238576 2.5,22.5 C2.5,22.7761424 2.72385761,23 3,23 Z M5,23 C5.27614239,23 5.5,22.7761424 5.5,22.5 C5.5,22.2238576 5.27614239,22 5,22 C4.72385761,22 4.5,22.2238576 4.5,22.5 C4.5,22.7761424 4.72385761,23 5,23 Z M7,23 C7.27614239,23 7.5,22.7761424 7.5,22.5 C7.5,22.2238576 7.27614239,22 7,22 C6.72385761,22 6.5,22.2238576 6.5,22.5 C6.5,22.7761424 6.72385761,23 7,23 Z M9,23 C9.27614239,23 9.5,22.7761424 9.5,22.5 C9.5,22.2238576 9.27614239,22 9,22 C8.72385761,22 8.5,22.2238576 8.5,22.5 C8.5,22.7761424 8.72385761,23 9,23 Z M11,23 C11.2761424,23 11.5,22.7761424 11.5,22.5 C11.5,22.2238576 11.2761424,22 11,22 C10.7238576,22 10.5,22.2238576 10.5,22.5 C10.5,22.7761424 10.7238576,23 11,23 Z M13,23 C13.2761424,23 13.5,22.7761424 13.5,22.5 C13.5,22.2238576 13.2761424,22 13,22 C12.7238576,22 12.5,22.2238576 12.5,22.5 C12.5,22.7761424 12.7238576,23 13,23 Z M15,23 C15.2761424,23 15.5,22.7761424 15.5,22.5 C15.5,22.2238576 15.2761424,22 15,22 C14.7238576,22 14.5,22.2238576 14.5,22.5 C14.5,22.7761424 14.7238576,23 15,23 Z M17,23 C17.2761424,23 17.5,22.7761424 17.5,22.5 C17.5,22.2238576 17.2761424,22 17,22 C16.7238576,22 16.5,22.2238576 16.5,22.5 C16.5,22.7761424 16.7238576,23 17,23 Z M19,23 C19.2761424,23 19.5,22.7761424 19.5,22.5 C19.5,22.2238576 19.2761424,22 19,22 C18.7238576,22 18.5,22.2238576 18.5,22.5 C18.5,22.7761424 18.7238576,23 19,23 Z M21,23 C21.2761424,23 21.5,22.7761424 21.5,22.5 C21.5,22.2238576 21.2761424,22 21,22 C20.7238576,22 20.5,22.2238576 20.5,22.5 C20.5,22.7761424 20.7238576,23 21,23 Z M23,23 C23.2761424,23 23.5,22.7761424 23.5,22.5 C23.5,22.2238576 23.2761424,22 23,22 C22.7238576,22 22.5,22.2238576 22.5,22.5 C22.5,22.7761424 22.7238576,23 23,23 Z M25,23 C25.2761424,23 25.5,22.7761424 25.5,22.5 C25.5,22.2238576 25.2761424,22 25,22 C24.7238576,22 24.5,22.2238576 24.5,22.5 C24.5,22.7761424 24.7238576,23 25,23 Z M27,23 C27.2761424,23 27.5,22.7761424 27.5,22.5 C27.5,22.2238576 27.2761424,22 27,22 C26.7238576,22 26.5,22.2238576 26.5,22.5 C26.5,22.7761424 26.7238576,23 27,23 Z M29,23 C29.2761424,23 29.5,22.7761424 29.5,22.5 C29.5,22.2238576 29.2761424,22 29,22 C28.7238576,22 28.5,22.2238576 28.5,22.5 C28.5,22.7761424 28.7238576,23 29,23 Z M31,23 C31.2761424,23 31.5,22.7761424 31.5,22.5 C31.5,22.2238576 31.2761424,22 31,22 C30.7238576,22 30.5,22.2238576 30.5,22.5 C30.5,22.7761424 30.7238576,23 31,23 Z M33,23 C33.2761424,23 33.5,22.7761424 33.5,22.5 C33.5,22.2238576 33.2761424,22 33,22 C32.7238576,22 32.5,22.2238576 32.5,22.5 C32.5,22.7761424 32.7238576,23 33,23 Z M35,23 C35.2761424,23 35.5,22.7761424 35.5,22.5 C35.5,22.2238576 35.2761424,22 35,22 C34.7238576,22 34.5,22.2238576 34.5,22.5 C34.5,22.7761424 34.7238576,23 35,23 Z M37,23 C37.2761424,23 37.5,22.7761424 37.5,22.5 C37.5,22.2238576 37.2761424,22 37,22 C36.7238576,22 36.5,22.2238576 36.5,22.5 C36.5,22.7761424 36.7238576,23 37,23 Z M39,23 C39.2761424,23 39.5,22.7761424 39.5,22.5 C39.5,22.2238576 39.2761424,22 39,22 C38.7238576,22 38.5,22.2238576 38.5,22.5 C38.5,22.7761424 38.7238576,23 39,23 Z M41,23 C41.2761424,23 41.5,22.7761424 41.5,22.5 C41.5,22.2238576 41.2761424,22 41,22 C40.7238576,22 40.5,22.2238576 40.5,22.5 C40.5,22.7761424 40.7238576,23 41,23 Z M43,23 C43.2761424,23 43.5,22.7761424 43.5,22.5 C43.5,22.2238576 43.2761424,22 43,22 C42.7238576,22 42.5,22.2238576 42.5,22.5 C42.5,22.7761424 42.7238576,23 43,23 Z M45,23 C45.2761424,23 45.5,22.7761424 45.5,22.5 C45.5,22.2238576 45.2761424,22 45,22 C44.7238576,22 44.5,22.2238576 44.5,22.5 C44.5,22.7761424 44.7238576,23 45,23 Z M47,23 C47.2761424,23 47.5,22.7761424 47.5,22.5 C47.5,22.2238576 47.2761424,22 47,22 C46.7238576,22 46.5,22.2238576 46.5,22.5 C46.5,22.7761424 46.7238576,23 47,23 Z M49,23 C49.2761424,23 49.5,22.7761424 49.5,22.5 C49.5,22.2238576 49.2761424,22 49,22 C48.7238576,22 48.5,22.2238576 48.5,22.5 C48.5,22.7761424 48.7238576,23 49,23 Z M51,23 C51.2761424,23 51.5,22.7761424 51.5,22.5 C51.5,22.2238576 51.2761424,22 51,22 C50.7238576,22 50.5,22.2238576 50.5,22.5 C50.5,22.7761424 50.7238576,23 51,23 Z M53,23 C53.2761424,23 53.5,22.7761424 53.5,22.5 C53.5,22.2238576 53.2761424,22 53,22 C52.7238576,22 52.5,22.2238576 52.5,22.5 C52.5,22.7761424 52.7238576,23 53,23 Z M55,23 C55.2761424,23 55.5,22.7761424 55.5,22.5 C55.5,22.2238576 55.2761424,22 55,22 C54.7238576,22 54.5,22.2238576 54.5,22.5 C54.5,22.7761424 54.7238576,23 55,23 Z M57,23 C57.2761424,23 57.5,22.7761424 57.5,22.5 C57.5,22.2238576 57.2761424,22 57,22 C56.7238576,22 56.5,22.2238576 56.5,22.5 C56.5,22.7761424 56.7238576,23 57,23 Z M59,23 C59.2761424,23 59.5,22.7761424 59.5,22.5 C59.5,22.2238576 59.2761424,22 59,22 C58.7238576,22 58.5,22.2238576 58.5,22.5 C58.5,22.7761424 58.7238576,23 59,23 Z" id="path-8"></path>
        <filter x="-0.8%" y="-50.0%" width="101.7%" height="300.0%" filterUnits="objectBoundingBox" id="filter-9">
            <feOffset dx="0" dy="1" in="SourceAlpha" result="shadowOffsetOuter1"></feOffset>
            <feColorMatrix values="0 0 0 0 1   0 0 0 0 1   0 0 0 0 1  0 0 0 0.1 0" type="matrix" in="shadowOffsetOuter1"></feColorMatrix>
        </filter>
    </defs>
    <g id="Page-1" stroke="none" stroke-width="1" fill="none" fill-rule="evenodd">
        <g id="Home" transform="translate(-115.000000, -204.000000)">
            <g id="Notes" transform="translate(115.000000, 204.000000)">
                <text font-family="Helvetica" font-size="12" font-weight="normal" fill="#FFFFFF">
                    <tspan x="13" y="75">Notes</tspan>
                </text>
                <g id="Notes-icons">
                    <g id="Notes-Icon">
                        <mask id="mask-3" fill="white">
                            <use xlink:href="#path-2"></use>
                        </mask>
                        <use id="Mask" fill="url(#linearGradient-1)" xlink:href="#path-2"></use>
                        <path d="M0,30 L60,30 L60,30.5 L0,30.5 L0,30 Z M0,41 L60,41 L60,41.5 L0,41.5 L0,41 Z M0,52.5 L60,52.5 L60,53 L0,53 L0,52.5 Z" id="Shape" fill-opacity="0.29" fill="#000000" mask="url(#mask-3)"></path>
                        <g id="Top" mask="url(#mask-3)">
                            <use fill="black" fill-opacity="1" filter="url(#filter-6)" xlink:href="#path-5"></use>
                            <use fill="url(#linearGradient-4)" fill-rule="evenodd" xlink:href="#path-5"></use>
                            <use fill="black" fill-opacity="1" filter="url(#filter-7)" xlink:href="#path-5"></use>
                        </g>
                        <g id="Dots-Line" mask="url(#mask-3)">
                            <use fill="black" fill-opacity="1" filter="url(#filter-9)" xlink:href="#path-8"></use>
                            <use fill="#AAAAAA" fill-rule="evenodd" xlink:href="#path-8"></use>
                        </g>
                    </g>
                </g>
            </g>
        </g>
    </g>
</svg>