<?xml version="1.0" encoding="UTF-8"?>
<svg width="60px" height="60px" viewBox="0 0 60 60" version="1.1" xmlns="http://www.w3.org/2000/svg" xmlns:xlink="http://www.w3.org/1999/xlink">
    <!-- Generator: Sketch 51.3 (57544) - http://www.bohemiancoding.com/sketch -->
    <title>Phone</title>
    <desc>Created with Sketch.</desc>
    <defs>
        <linearGradient x1="50%" y1="0%" x2="50%" y2="100%" id="linearGradient-1">
            <stop stop-color="#67FF81" offset="0%"></stop>
            <stop stop-color="#01B41F" offset="100%"></stop>
        </linearGradient>
    </defs>
    <g id="Page-1" stroke="none" stroke-width="1" fill="none" fill-rule="evenodd">
        <g id="Home" transform="translate(-28.000000, -591.000000)">
            <g id="Dock" transform="translate(0.000000, 571.000000)">
                <g id="Phone" transform="translate(28.000000, 20.000000)">
                    <g id="Phone-Icon">
                        <path d="M39.0815,0 C45.105,0 48.116,0 51.3585,1.025 C54.8985,2.3135 57.6865,5.1015 58.975,8.6415 C60,11.8835 60,14.8955 60,20.9185 L60,39.0815 C60,45.105 60,48.116 58.975,51.3585 C57.6865,54.8985 54.8985,57.6865 51.3585,58.9745 C48.116,60 45.105,60 39.0815,60 L20.9185,60 C14.895,60 11.8835,60 8.6415,58.9745 C5.1015,57.6865 2.3135,54.8985 1.025,51.3585 C0,48.116 0,45.105 0,39.0815 L0,20.9185 C0,14.8955 0,11.8835 1.025,8.6415 C2.3135,5.1015 5.1015,2.3135 8.6415,1.025 C11.8835,0 14.895,0 20.9185,0 L39.0815,0 Z" id="Background" fill="url(#linearGradient-1)"></path>
                        <path d="M13.7817383,26.1784668 C11.5584717,22.1496582 10.7109375,18.9017481 10.7109375,16.7080078 C10.7109375,14.5142675 11.2501791,13.8850759 11.7973613,13.3767726 C12.3445435,12.8684692 14.8119507,11.3479614 15.2323608,11.0643921 C15.652771,10.7808228 17.2573242,10.2297363 18.2635638,11.6765338 C19.2698033,13.1233312 21.1646729,16.0281982 22.4710693,17.9579468 C24.5210571,20.6912842 22.8878784,21.8911743 22.3603516,22.6103516 C21.3896299,23.9337362 20.8306885,24.260139 20.8306885,25.8851318 C20.8306885,27.5101246 25.3742696,32.1267873 26.4606934,33.2642822 C27.5388528,34.3931244 32.0661431,38.3600128 33.4689941,38.5721436 C34.8817139,38.7857666 36.7729468,37.2908275 37.1750488,36.9117432 C39.2205811,35.342041 40.3752441,36.5321045 41.3174565,37.0493995 C42.2596689,37.5666945 46.5167703,40.2181355 47.8359991,41.1118815 C49.0776263,42.0056276 49.0000246,43.3868715 49.0000246,43.3868715 C49.0000246,43.3868715 48.1166992,45.9643566 46.1287618,47.9368513 C45.6399847,48.4218315 44.8095329,48.9930966 42.7142871,48.9930966 C40.6190413,48.9930966 38.3803711,48.6105957 33.0600586,45.6860352 C28.7067751,43.2930477 24.5568807,39.5457911 22.3840332,37.3520508 C20.133584,35.1583105 16.3213348,30.7805006 13.7817383,26.1784668 Z" fill="#FFFFFF"></path>
                    </g>
                </g>
            </g>
        </g>
    </g>
</svg>