<?xml version="1.0" encoding="UTF-8"?>
<svg width="61px" height="76px" viewBox="0 0 61 76" version="1.1" xmlns="http://www.w3.org/2000/svg" xmlns:xlink="http://www.w3.org/1999/xlink">
    <!-- Generator: Sketch 51.3 (57544) - http://www.bohemiancoding.com/sketch -->
    <title>Reminders\</title>
    <desc>Created with Sketch.</desc>
    <defs>
        <linearGradient x1="50%" y1="0%" x2="50%" y2="100%" id="linearGradient-1">
            <stop stop-color="#EBF0F3" offset="0%"></stop>
            <stop stop-color="#EEF1F5" offset="100%"></stop>
        </linearGradient>
        <path d="M39.0815,0 C45.105,0 48.116,0 51.3585,1.025 C54.8985,2.3135 57.6865,5.1015 58.975,8.6415 C60,11.8835 60,14.8955 60,20.9185 L60,39.0815 C60,45.105 60,48.116 58.975,51.3585 C57.6865,54.8985 54.8985,57.6865 51.3585,58.9745 C48.116,60 45.105,60 39.0815,60 L20.9185,60 C14.895,60 11.8835,60 8.6415,58.9745 C5.1015,57.6865 2.3135,54.8985 1.025,51.3585 C0,48.116 0,45.105 0,39.0815 L0,20.9185 C0,14.8955 0,11.8835 1.025,8.6415 C2.3135,5.1015 5.1015,2.3135 8.6415,1.025 C11.8835,0 14.895,0 20.9185,0 L39.0815,0 Z" id="path-2"></path>
    </defs>
    <g id="Page-1" stroke="none" stroke-width="1" fill="none" fill-rule="evenodd">
        <g id="Home" transform="translate(-203.000000, -204.000000)">
            <g id="Reminders\" transform="translate(203.000000, 204.000000)">
                <text id="Reminders" font-family="Helvetica" font-size="12" font-weight="normal" fill="#FFFFFF">
                    <tspan x="0.5" y="75">Reminders</tspan>
                </text>
                <g id="Reminders-icon" transform="translate(0.500000, 0.000000)">
                    <g id="Reminder-Icon">
                        <mask id="mask-3" fill="white">
                            <use xlink:href="#path-2"></use>
                        </mask>
                        <use id="Mask" fill="url(#linearGradient-1)" xlink:href="#path-2"></use>
                        <g id="Ovals" mask="url(#mask-3)" fill-rule="nonzero">
                            <g transform="translate(5.500000, 8.500000)" id="Oval">
                                <path d="M8.5,4.25 C8.5,1.90278981 6.59721019,0 4.25,0 C1.90278981,0 0,1.90278981 0,4.25 C0,6.59721019 1.90278981,8.5 4.25,8.5 C6.59721019,8.5 8.5,6.59721019 8.5,4.25 L8.5,4.25 L8.5,4.25 Z M0.5,4.25 C0.5,2.17893219 2.17893219,0.5 4.25,0.5 C6.32106781,0.5 8,2.17893219 8,4.25 C8,6.32106781 6.32106781,8 4.25,8 C2.17893219,8 0.5,6.32106781 0.5,4.25 L0.5,4.25 L0.5,4.25 Z M1,4.25 C1,2.45507456 2.45507456,1 4.25,1 C6.04492544,1 7.5,2.45507456 7.5,4.25 C7.5,6.04492544 6.04492544,7.5 4.25,7.5 C2.45507456,7.5 1,6.04492544 1,4.25 L1,4.25 L1,4.25 Z" fill="#FF9500"></path>
                                <path d="M8.5,15.75 C8.5,13.4027898 6.59721019,11.5 4.25,11.5 C1.90278981,11.5 0,13.4027898 0,15.75 C0,18.0972102 1.90278981,20 4.25,20 C6.59721019,20 8.5,18.0972102 8.5,15.75 L8.5,15.75 L8.5,15.75 Z M0.5,15.75 C0.5,13.6789322 2.17893219,12 4.25,12 C6.32106781,12 8,13.6789322 8,15.75 C8,17.8210678 6.32106781,19.5 4.25,19.5 C2.17893219,19.5 0.5,17.8210678 0.5,15.75 L0.5,15.75 L0.5,15.75 Z M1,15.75 C1,13.9550746 2.45507456,12.5 4.25,12.5 C6.04492544,12.5 7.5,13.9550746 7.5,15.75 C7.5,17.5449254 6.04492544,19 4.25,19 C2.45507456,19 1,17.5449254 1,15.75 L1,15.75 L1,15.75 Z" fill="#1BADF8"></path>
                                <path d="M8.5,27.25 C8.5,24.9027898 6.59721019,23 4.25,23 C1.90278981,23 0,24.9027898 0,27.25 C0,29.5972102 1.90278981,31.5 4.25,31.5 C6.59721019,31.5 8.5,29.5972102 8.5,27.25 L8.5,27.25 L8.5,27.25 Z M0.5,27.25 C0.5,25.1789322 2.17893219,23.5 4.25,23.5 C6.32106781,23.5 8,25.1789322 8,27.25 C8,29.3210678 6.32106781,31 4.25,31 C2.17893219,31 0.5,29.3210678 0.5,27.25 L0.5,27.25 L0.5,27.25 Z M1,27.25 C1,25.4550746 2.45507456,24 4.25,24 C6.04492544,24 7.5,25.4550746 7.5,27.25 C7.5,29.0449254 6.04492544,30.5 4.25,30.5 C2.45507456,30.5 1,29.0449254 1,27.25 L1,27.25 L1,27.25 Z" fill="#63DA38"></path>
                                <path d="M8.5,38.75 C8.5,36.4027898 6.59721019,34.5 4.25,34.5 C1.90278981,34.5 0,36.4027898 0,38.75 C0,41.0972102 1.90278981,43 4.25,43 C6.59721019,43 8.5,41.0972102 8.5,38.75 L8.5,38.75 L8.5,38.75 Z M0.5,38.75 C0.5,36.6789322 2.17893219,35 4.25,35 C6.32106781,35 8,36.6789322 8,38.75 C8,40.8210678 6.32106781,42.5 4.25,42.5 C2.17893219,42.5 0.5,40.8210678 0.5,38.75 L0.5,38.75 L0.5,38.75 Z M1,38.75 C1,36.9550746 2.45507456,35.5 4.25,35.5 C6.04492544,35.5 7.5,36.9550746 7.5,38.75 C7.5,40.5449254 6.04492544,42 4.25,42 C2.45507456,42 1,40.5449254 1,38.75 L1,38.75 L1,38.75 Z" fill="#CC73E1"></path>
                            </g>
                        </g>
                        <g id="Lines" mask="url(#mask-3)" fill="#B7B7B7" fill-rule="nonzero">
                            <g transform="translate(19.000000, 7.000000)" id="Line">
                                <polygon points="42.25 46 42.5 46 42.5 45.5 42.25 45.5 0.25 45.5 0 45.5 0 46 0.25 46"></polygon>
                                <polygon points="42.25 34.5 42.5 34.5 42.5 34 42.25 34 0.25 34 0 34 0 34.5 0.25 34.5"></polygon>
                                <polygon points="42.25 23.5 42.5 23.5 42.5 23 42.25 23 0.25 23 0 23 0 23.5 0.25 23.5"></polygon>
                                <polygon points="42.25 12 42.5 12 42.5 11.5 42.25 11.5 0.25 11.5 0 11.5 0 12 0.25 12"></polygon>
                                <polygon points="42.25 0.5 42.5 0.5 42.5 0 42.25 0 0.25 0 0 0 0 0.5 0.25 0.5"></polygon>
                            </g>
                        </g>
                    </g>
                </g>
            </g>
        </g>
    </g>
</svg>