<?xml version="1.0" encoding="UTF-8"?>
<svg width="60px" height="76px" viewBox="0 0 60 76" version="1.1" xmlns="http://www.w3.org/2000/svg" xmlns:xlink="http://www.w3.org/1999/xlink">
    <!-- Generator: Sketch 51.3 (57544) - http://www.bohemiancoding.com/sketch -->
    <title>Stocks</title>
    <desc>Created with Sketch.</desc>
    <defs>
        <path d="M39.0815,0 C45.105,0 48.116,0 51.3585,1.025 C54.8985,2.3135 57.6865,5.1015 58.975,8.6415 C60,11.8835 60,14.8955 60,20.9185 L60,39.0815 C60,45.105 60,48.116 58.975,51.3585 C57.6865,54.8985 54.8985,57.6865 51.3585,58.9745 C48.116,60 45.105,60 39.0815,60 L20.9185,60 C14.895,60 11.8835,60 8.6415,58.9745 C5.1015,57.6865 2.3135,54.8985 1.025,51.3585 C0,48.116 0,45.105 0,39.0815 L0,20.9185 C0,14.8955 0,11.8835 1.025,8.6415 C2.3135,5.1015 5.1015,2.3135 8.6415,1.025 C11.8835,0 14.895,0 20.9185,0 L39.0815,0 Z" id="path-1"></path>
        <linearGradient x1="50%" y1="0%" x2="50%" y2="100%" id="linearGradient-3">
            <stop stop-color="#454545" offset="0%"></stop>
            <stop stop-color="#111112" offset="100%"></stop>
        </linearGradient>
        <path d="M41.5,16.0112108 C41.4176595,16.0037907 41.3342724,16 41.25,16 C41.1657276,16 41.0823405,16.0037907 41,16.0112108 L41,-1.5 L41.5,-1.5 L41.5,16.0112108 Z M41.5,21.4887892 L41.5,63 L41,63 L41,21.4887892 C41.0823405,21.4962093 41.1657276,21.5 41.25,21.5 C41.3342724,21.5 41.4176595,21.4962093 41.5,21.4887892 Z M41.25,21 C40.0073593,21 39,19.9926407 39,18.75 C39,17.5073593 40.0073593,16.5 41.25,16.5 C42.4926407,16.5 43.5,17.5073593 43.5,18.75 C43.5,19.9926407 42.4926407,21 41.25,21 Z" id="path-4"></path>
        <filter x="-11.1%" y="-0.8%" width="122.2%" height="103.1%" filterUnits="objectBoundingBox" id="filter-5">
            <feOffset dx="0" dy="1" in="SourceAlpha" result="shadowOffsetOuter1"></feOffset>
            <feColorMatrix values="0 0 0 0 0   0 0 0 0 0   0 0 0 0 0  0 0 0 0.5 0" type="matrix" in="shadowOffsetOuter1"></feColorMatrix>
        </filter>
    </defs>
    <g id="Page-1" stroke="none" stroke-width="1" fill="none" fill-rule="evenodd">
        <g id="Home" transform="translate(-289.000000, -116.000000)">
            <g id="Stocks" transform="translate(289.000000, 116.000000)">
                <text font-family="Helvetica" font-size="12" font-weight="normal" fill="#FFFFFF">
                    <tspan x="10.5" y="75">Stocks</tspan>
                </text>
                <g id="Stocks-icon">
                    <g id="Stocks-Icon">
                        <mask id="mask-2" fill="white">
                            <use xlink:href="#path-1"></use>
                        </mask>
                        <use id="Background" fill="#141416" xlink:href="#path-1"></use>
                        <path d="M-0.484863281,34.0537109 C-0.484863281,34.0537109 1.27239211,34.0644686 3.11938477,34.6320801 C4.70794495,35.120271 6.30098176,36.2523786 7.23388672,36.1945801 C9.25146484,36.0695801 11.3344727,35.3759766 11.3344727,35.3759766 L15.1208496,30.4450684 L18.7275391,33.5263672 L22.4941406,24.6245117 L26.1196289,34.3369141 L30.25,36.8659668 L33.9467773,30.2084961 L37.5385742,29.276123 L41.4316406,18.1323242 L45.1474609,27.2033691 L48.9438477,24.6655273 L52.7734375,31.9936523 L56.3422852,23.8173828 L60.3457031,19.65625 L60.3457031,60.4791166 L-0.304989325,60.4791166 L-0.484863281,34.0537109 Z" id="Chart" stroke="#FFFFFF" stroke-width="0.75" fill="url(#linearGradient-3)" mask="url(#mask-2)"></path>
                        <g id="Line" mask="url(#mask-2)">
                            <use fill="black" fill-opacity="1" filter="url(#filter-5)" xlink:href="#path-4"></use>
                            <use fill="#01A6F1" fill-rule="evenodd" xlink:href="#path-4"></use>
                        </g>
                        <path d="M7,-1.5 L7.5,-1.5 L7.5,63 L7,63 L7,-1.5 Z M18.5,-1.5 L19,-1.5 L19,63 L18.5,63 L18.5,-1.5 Z M30,-1.5 L30.5,-1.5 L30.5,63 L30,63 L30,-1.5 Z M52.5,-1.5 L53,-1.5 L53,63 L52.5,63 L52.5,-1.5 Z" id="Lines" fill="#777778" mask="url(#mask-2)"></path>
                    </g>
                </g>
            </g>
        </g>
    </g>
</svg>