<?xml version="1.0" encoding="UTF-8"?>
<svg width="60px" height="78px" viewBox="0 0 60 78" version="1.1" xmlns="http://www.w3.org/2000/svg" xmlns:xlink="http://www.w3.org/1999/xlink">
    <!-- Generator: Sketch 51.3 (57544) - http://www.bohemiancoding.com/sketch -->
    <title>Weather</title>
    <desc>Created with Sketch.</desc>
    <defs>
        <linearGradient x1="50%" y1="0%" x2="50%" y2="100%" id="linearGradient-1">
            <stop stop-color="#1D62F0" offset="0%"></stop>
            <stop stop-color="#19D5FD" offset="100%"></stop>
        </linearGradient>
    </defs>
    <g id="Page-1" stroke="none" stroke-width="1" fill="none" fill-rule="evenodd">
        <g id="Home" transform="translate(-202.000000, -116.000000)">
            <g id="Weather" transform="translate(202.000000, 116.000000)">
                <text font-family="Helvetica" font-size="13" font-weight="normal" line-spacing="16" letter-spacing="-0.0799999982" fill="#FFFFFF">
                    <tspan x="6" y="77">Weather</tspan>
                </text>
                <g id="Weather-icon">
                    <path d="M39.0815,0 C45.105,0 48.116,0 51.3585,1.025 C54.8985,2.3135 57.6865,5.1015 58.975,8.6415 C60,11.8835 60,14.8955 60,20.9185 L60,39.0815 C60,45.105 60,48.116 58.975,51.3585 C57.6865,54.8985 54.8985,57.6865 51.3585,58.9745 C48.116,60 45.105,60 39.0815,60 L20.9185,60 C14.895,60 11.8835,60 8.6415,58.9745 C5.1015,57.6865 2.3135,54.8985 1.025,51.3585 C0,48.116 0,45.105 0,39.0815 L0,20.9185 C0,14.8955 0,11.8835 1.025,8.6415 C2.3135,5.1015 5.1015,2.3135 8.6415,1.025 C11.8835,0 14.895,0 20.9185,0 L39.0815,0 Z" id="Background" fill="url(#linearGradient-1)"></path>
                    <circle id="Sun" fill="#FFD800" cx="19.75" cy="24.25" r="11.25"></circle>
                    <path d="M41.5,43.996687 C46.4930625,43.8642035 50.5,39.775037 50.5,34.75 C50.5,29.6413661 46.3586339,25.5 41.25,25.5 C41.0574549,25.5 40.8662838,25.505883 40.6766567,25.5174791 C39.0043353,21.4018889 34.9660539,18.5 30.25,18.5 C24.0367966,18.5 19,23.5367966 19,29.75 C19,30.0391915 19.0109117,30.3258344 19.032346,30.6095395 C15.8856244,31.1828157 13.5,33.9378116 13.5,37.25 C13.5,40.8942242 16.3879002,43.8639431 20,43.9954562 L20,44 L41.5,44 L41.5,43.996687 L41.5,43.996687 Z" id="Cloud" fill="#FFFFFF" opacity="0.900536381"></path>
                </g>
            </g>
        </g>
    </g>
</svg>